<svg width="213" height="80" viewBox="0 0 213 80" fill="none" xmlns="http://www.w3.org/2000/svg">
<path d="M40.7798 5.21849C36.7889 2.84807 32.0105 1.66286 26.4447 1.66286C20.6624 1.66286 15.7923 2.75846 11.8343 4.94967C8.00714 7.0069 4.92111 10.0075 2.94441 13.5935C0.977533 17.1932 -0.030159 21.153 0.000687405 25.1611C-0.00850754 29.3807 1.06981 33.5453 3.15158 37.33C5.22171 41.156 8.41725 44.4033 12.394 46.7221C16.4529 49.1239 21.2705 50.3249 26.8466 50.3249C28.2632 50.3227 29.6779 50.2301 31.0798 50.0477C35.8211 49.5544 39.8316 48.1688 43.1113 45.8907C46.3268 43.6665 48.8635 40.7505 50.4861 37.4132C52.1375 34.045 52.9804 30.4031 52.9598 26.7241C52.9722 22.5101 51.9148 18.3488 49.8676 14.5551C47.8506 10.7551 44.7068 7.5252 40.7798 5.21849ZM40.5232 42.4653C38.2845 46.4154 35.1006 48.6325 30.9716 49.1165C30.2861 49.1886 29.5961 49.22 28.906 49.2108C24.9893 49.2108 21.5478 47.9175 18.5814 45.3309C15.615 42.7443 13.3474 39.4132 11.7787 35.3374C10.1945 31.2615 9.39155 26.9747 9.4039 22.6586C9.4039 17.0475 10.7438 12.3122 13.4237 8.45265C16.1035 4.5931 20.0264 2.66517 25.1924 2.66886C27.0746 2.64784 28.942 2.9693 30.6815 3.61381C32.4211 4.25831 33.9967 5.21245 35.3129 6.41849C38.133 8.91454 40.2665 12.1228 41.7137 16.0434C43.1693 20.03 43.9002 24.2006 43.8782 28.3952C43.8782 33.8289 42.7598 38.5189 40.5232 42.4653ZM153.222 45.705L153.324 22.5699C153.392 18.0674 153.066 14.3806 152.344 11.5094C151.623 8.63833 150.18 6.38708 148.015 4.75568C145.847 3.12059 142.629 2.30304 138.362 2.30304L136.197 2.3945C130.965 2.70489 126.388 5.48178 122.465 10.7252V2.95154L108.835 2.85731V3.32567C109.453 3.32567 110.313 3.52798 111.417 3.92705C112.521 4.32613 113.204 4.83882 113.482 5.45406L113.584 45.7106C113.584 47.5009 112.001 48.4874 108.835 48.6704V49.1332H127.316V48.6648C125.255 48.5429 123.947 48.1577 123.393 47.5092C122.864 46.9181 122.574 46.185 122.567 45.4279L122.465 12.6679C124.048 9.83001 126.006 7.65543 128.34 6.14413C130.515 4.68254 133.157 3.8885 135.876 3.87994C139.174 3.87994 141.41 5.35799 142.585 8.31408C143.76 11.2702 144.346 16.0212 144.342 22.5671V45.4251C144.335 46.1823 144.044 46.9154 143.516 47.5064C142.963 48.1549 141.661 48.5401 139.592 48.6621V49.1249H157.972V48.6648C154.806 48.4782 153.222 47.4916 153.222 45.705ZM102.821 50.0061C99.9345 48.6814 96.4239 48.0182 92.2887 48.0163C89.1223 48.0163 84.9923 48.3858 79.8985 49.1249C75.9076 49.6182 73.3308 49.8648 72.1681 49.8648C69.6202 49.8648 68.3463 49.1868 68.3463 47.8307C68.3463 46.2251 69.6202 44.9605 72.1681 44.0367C74.877 43.0762 77.7304 42.4831 80.6344 42.2769C82.0149 42.3309 83.398 42.2687 84.7655 42.0912C91.0982 41.3522 95.9168 39.2275 99.2213 35.7171C102.485 32.2902 104.244 27.9148 104.169 23.4096C104.186 19.1192 102.768 14.9227 100.096 11.3626C97.4778 7.73436 93.5151 5.05033 88.9059 3.78294C91.728 2.12013 94.1718 1.28873 96.2374 1.28873C96.7697 1.27223 97.2991 1.36712 97.7834 1.56587C97.9959 1.60753 98.1928 1.69749 98.3553 1.82707C98.5177 1.95666 98.6403 2.12153 98.7111 2.30582C98.8804 2.84853 98.9841 3.40601 99.0203 3.96862C99.0983 4.66454 99.3262 5.34028 99.6913 5.95844C100 6.42033 100.602 6.65128 101.497 6.65128C102.804 6.65128 103.819 6.37414 104.543 5.81988C104.875 5.59069 105.145 5.29717 105.333 4.96125C105.521 4.62533 105.622 4.25568 105.628 3.87994C105.628 2.82868 105.01 1.91783 103.773 1.1474C102.536 0.376966 100.812 -0.0054833 98.5997 5.93853e-05C96.6116 -0.00158714 94.644 0.360537 92.8175 1.06425C91.1011 1.70145 89.4764 2.52117 87.9783 3.5058C85.0797 2.82139 82.0745 2.57322 79.0853 2.7714C74.6099 3.0781 70.8416 4.158 67.7804 6.0111C64.843 7.73057 62.4719 10.1226 60.9127 12.9395C59.4015 15.7045 58.6247 18.7455 58.6431 21.8244C58.6399 24.8884 59.364 27.9181 60.7674 30.7121C62.1578 33.5237 64.2579 36.0075 66.9022 37.9674C69.6352 39.9939 72.9083 41.3499 76.4013 41.9027C74.1741 42.2193 72.015 42.8428 70.0005 43.7512C68.1453 44.6159 67.1465 45.8168 67.0043 47.354C66.7301 50.2528 67.6258 52.2851 69.6913 53.4509C71.7569 54.6167 74.7161 55.2024 78.5689 55.208C81.9219 55.179 85.2702 54.9745 88.5967 54.5955C93.004 54.226 96.1364 54.0412 97.9937 54.0412C103.147 54.0412 106.28 55.1211 107.391 57.2809C107.872 58.2078 108.118 59.2186 108.111 60.2407C108.111 62.5853 106.907 64.8374 104.5 66.9972C102.092 69.157 99.0584 70.8817 95.3994 72.1713C91.9893 73.4222 88.3449 74.0805 84.6604 74.1113C79.0945 74.1113 74.6377 72.9695 71.29 70.6859C67.9422 68.4023 66.2735 65.4721 66.2838 61.8952C66.2838 59.3086 67.1785 56.6869 68.9678 54.0301H68.2442C65.8365 57.3022 64.6316 60.7238 64.6295 64.2952C64.6016 66.9777 65.3871 69.6167 66.9022 71.9302C68.4133 74.2434 70.6674 76.1094 73.6647 77.5283C76.6621 78.9473 80.2592 79.6567 84.4563 79.6567C89.6841 79.7177 94.1924 78.8392 97.9813 77.0212C101.77 75.2032 104.644 72.8429 106.602 69.9404C108.567 67.0416 109.548 64.0855 109.546 61.0721C109.563 59.6873 109.319 58.3098 108.822 56.9982C107.722 53.6634 105.721 51.3327 102.821 50.0061ZM74.4409 38.0229C72.1733 36.1106 70.4695 33.6432 69.3296 30.6206C68.1836 27.5477 67.6081 24.3271 67.6258 21.0872C67.6258 16.4018 68.7266 12.3916 70.9282 9.0568C73.1298 5.72195 76.2621 4.05915 80.3252 4.06839C83.3514 4.06839 86.0312 5.1021 88.3648 7.16952C90.6983 9.23694 92.5278 11.902 93.8533 15.1648C95.1486 18.3699 95.813 21.7522 95.8168 25.1611C95.8168 29.5952 94.6975 33.3273 92.4588 36.3573C90.2201 39.3873 86.8991 40.8986 82.4959 40.8912C79.4935 40.9264 76.5976 39.8952 74.4409 38.0229ZM209.907 14.5635C207.892 10.7604 204.748 7.52747 200.82 5.21849C196.829 2.84807 192.045 1.66286 186.469 1.66286C180.687 1.66286 175.817 2.75846 171.859 4.94967C168.033 7.00952 164.95 10.0133 162.978 13.6018C161.011 17.2015 160.004 21.1613 160.034 25.1694C160.025 29.389 161.103 33.5536 163.185 37.3383C165.255 41.1636 168.449 44.4107 172.425 46.7304C176.488 49.1322 181.306 50.3332 186.88 50.3332C188.297 50.3311 189.712 50.2384 191.113 50.056C195.855 49.5627 199.864 48.1771 203.142 45.899C206.363 43.6744 208.903 40.7551 210.526 37.4132C212.177 34.045 213.02 30.4032 213 26.7241C213.011 22.5129 211.953 18.3545 209.907 14.5635ZM200.563 42.4653C198.324 46.4154 195.14 48.6325 191.011 49.1165C190.326 49.1886 189.636 49.22 188.946 49.2108C185.029 49.2108 181.588 47.9175 178.621 45.3309C175.655 42.7443 173.387 39.4132 171.819 35.3374C170.234 31.2615 169.431 26.9747 169.444 22.6586C169.444 17.0475 170.784 12.3122 173.464 8.45265C176.143 4.5931 180.067 2.66517 185.235 2.66886C187.117 2.64693 188.984 2.96799 190.724 3.61255C192.463 4.25712 194.038 5.21175 195.353 6.41849C198.175 8.91454 200.309 12.1228 201.757 16.0434C203.212 20.03 203.943 24.2006 203.921 28.3952C203.929 33.8289 202.81 38.5189 200.563 42.4653Z" fill="#445063"/>
</svg>
